<svg id="Layer_1" data-name="Layer 1" xmlns="http://www.w3.org/2000/svg" xmlns:xlink="http://www.w3.org/1999/xlink" viewBox="0 0 1305.34 1019.38"><defs><style>.cls-1,.cls-2,.cls-3{stroke:#fff;stroke-miterlimit:10;stroke-width:25.34px;}.cls-1{fill:url(#linear-gradient);}.cls-2{fill:url(#linear-gradient-2);}.cls-3{fill:url(#linear-gradient-3);}</style><linearGradient id="linear-gradient" x1="550.07" y1="372.08" x2="757.74" y2="78.83" gradientUnits="userSpaceOnUse"><stop offset="0" stop-color="#ffe53b"/><stop offset="1" stop-color="#ff2525"/></linearGradient><linearGradient id="linear-gradient-2" x1="1361.98" y1="1405.89" x2="-33.4" y2="92.64" gradientUnits="userSpaceOnUse"><stop offset="0.45" stop-color="#c91e1e"/><stop offset="0.45" stop-color="#cc2920"/><stop offset="0.48" stop-color="#d95a27"/><stop offset="0.51" stop-color="#e5852d"/><stop offset="0.54" stop-color="#eea832"/><stop offset="0.57" stop-color="#f6c336"/><stop offset="0.6" stop-color="#fbd639"/><stop offset="0.63" stop-color="#fee13a"/><stop offset="0.66" stop-color="#ffe53b"/><stop offset="1" stop-color="#ff2525"/></linearGradient><linearGradient id="linear-gradient-3" x1="544.16" y1="1008.83" x2="1257.89" y2="0.99" gradientTransform="translate(1923.87 408.8) rotate(144.66)" xlink:href="#linear-gradient"/></defs><path class="cls-1" d="M730.91,375.06a24.09,24.09,0,0,1-23.86,27.36H600.59a24.09,24.09,0,0,1-23.86-27.36l23.1-168.21A97.77,97.77,0,0,1,556,120.62c2.29-50.4,43.45-91.27,93.86-93.24a97.89,97.89,0,0,1,57.92,179.47Z"/><path class="cls-2" d="M370.84,686,523.08,471.31a27.82,27.82,0,0,1,45.39,0l86.5,122L776.33,764.44a152,152,0,0,1-121,239.94c-.23,0-.46,0-.69,0a151.74,151.74,0,0,1-126.29-64.06L370.84,718.23A27.85,27.85,0,0,1,370.84,686ZM177.32,445.32l129.8,183a19.11,19.11,0,0,0,31.19,0L501.24,398.6a19.13,19.13,0,0,0,0-22.11l-129.81-183a19.11,19.11,0,0,0-31.19,0L177.32,423.2A19.11,19.11,0,0,0,177.32,445.32ZM40.7,252.64,115,357.42a21.8,21.8,0,0,0,35.57,0L310.18,132.28a21.79,21.79,0,0,0,0-25.22L288.7,76.76a152,152,0,1,0-248,175.88Z"/><rect class="cls-3" x="744.8" y="-62.69" width="304.04" height="1147.06" rx="152.02" transform="translate(1332.9 1446.3) rotate(-144.66)"/></svg>